<svg xmlns="http://www.w3.org/2000/svg" width="375" viewBox="0 0 375 375" height="375" version="1.0"><defs><clipPath id="a"><path d="M 85 87 L 374.8125 87 L 374.8125 375 L 85 375 Z M 85 87"/></clipPath></defs><g clip-path="url(#a)"><path fill="#F5EDFF" d="M 374.882812 232.125 C 374.882812 234.496094 374.828125 236.863281 374.710938 239.234375 C 374.59375 241.601562 374.421875 243.964844 374.1875 246.324219 C 373.957031 248.683594 373.667969 251.035156 373.320312 253.378906 C 372.972656 255.726562 372.566406 258.058594 372.105469 260.386719 C 371.644531 262.710938 371.125 265.023438 370.550781 267.320312 C 369.972656 269.621094 369.34375 271.90625 368.65625 274.175781 C 367.96875 276.441406 367.226562 278.691406 366.429688 280.925781 C 365.632812 283.15625 364.78125 285.367188 363.875 287.558594 C 362.96875 289.75 362.007812 291.914062 360.996094 294.058594 C 359.984375 296.203125 358.921875 298.320312 357.804688 300.410156 C 356.6875 302.5 355.523438 304.5625 354.304688 306.59375 C 353.089844 308.628906 351.820312 310.632812 350.507812 312.601562 C 349.191406 314.574219 347.828125 316.511719 346.417969 318.414062 C 345.007812 320.320312 343.550781 322.1875 342.050781 324.019531 C 340.546875 325.851562 339.003906 327.648438 337.414062 329.402344 C 335.824219 331.160156 334.191406 332.875 332.519531 334.554688 C 330.84375 336.230469 329.128906 337.863281 327.375 339.457031 C 325.621094 341.046875 323.828125 342.59375 322 344.097656 C 320.167969 345.601562 318.304688 347.0625 316.402344 348.472656 C 314.5 349.886719 312.566406 351.25 310.597656 352.566406 C 308.628906 353.882812 306.628906 355.152344 304.601562 356.371094 C 302.570312 357.589844 300.511719 358.757812 298.421875 359.875 C 296.335938 360.992188 294.21875 362.058594 292.082031 363.070312 C 289.941406 364.085938 287.777344 365.046875 285.589844 365.953125 C 283.402344 366.859375 281.195312 367.714844 278.964844 368.511719 C 276.738281 369.3125 274.488281 370.054688 272.222656 370.742188 C 269.960938 371.429688 267.679688 372.0625 265.382812 372.640625 C 263.085938 373.214844 260.777344 373.734375 258.453125 374.195312 C 256.132812 374.660156 253.800781 375.0625 251.460938 375.410156 C 249.117188 375.761719 246.769531 376.050781 244.414062 376.28125 C 242.058594 376.515625 239.695312 376.6875 237.332031 376.804688 C 234.96875 376.921875 232.601562 376.980469 230.234375 376.980469 C 227.867188 376.980469 225.5 376.921875 223.136719 376.804688 C 220.773438 376.6875 218.414062 376.515625 216.058594 376.28125 C 213.699219 376.050781 211.351562 375.761719 209.011719 375.410156 C 206.667969 375.0625 204.335938 374.660156 202.015625 374.195312 C 199.691406 373.734375 197.382812 373.214844 195.089844 372.640625 C 192.792969 372.0625 190.511719 371.429688 188.246094 370.742188 C 185.980469 370.054688 183.734375 369.3125 181.503906 368.511719 C 179.273438 367.714844 177.066406 366.859375 174.878906 365.953125 C 172.691406 365.046875 170.527344 364.085938 168.390625 363.070312 C 166.25 362.058594 164.136719 360.992188 162.046875 359.875 C 159.960938 358.757812 157.902344 357.589844 155.871094 356.371094 C 153.839844 355.152344 151.839844 353.882812 149.871094 352.566406 C 147.902344 351.25 145.96875 349.886719 144.066406 348.472656 C 142.164062 347.0625 140.300781 345.601562 138.46875 344.097656 C 136.640625 342.59375 134.847656 341.046875 133.09375 339.457031 C 131.339844 337.863281 129.625 336.230469 127.953125 334.554688 C 126.277344 332.875 124.644531 331.160156 123.058594 329.402344 C 121.46875 327.648438 119.921875 325.851562 118.417969 324.019531 C 116.917969 322.1875 115.460938 320.320312 114.050781 318.414062 C 112.640625 316.511719 111.277344 314.574219 109.964844 312.601562 C 108.648438 310.632812 107.382812 308.628906 106.164062 306.59375 C 104.949219 304.5625 103.78125 302.5 102.664062 300.410156 C 101.550781 298.320312 100.484375 296.203125 99.472656 294.058594 C 98.460938 291.914062 97.503906 289.75 96.597656 287.558594 C 95.691406 285.367188 94.839844 283.15625 94.039062 280.925781 C 93.242188 278.691406 92.5 276.441406 91.8125 274.175781 C 91.125 271.90625 90.496094 269.621094 89.921875 267.320312 C 89.34375 265.023438 88.828125 262.710938 88.363281 260.386719 C 87.902344 258.058594 87.5 255.726562 87.152344 253.378906 C 86.804688 251.035156 86.515625 248.683594 86.28125 246.324219 C 86.050781 243.964844 85.875 241.601562 85.757812 239.234375 C 85.644531 236.863281 85.585938 234.496094 85.585938 232.125 C 85.585938 229.753906 85.644531 227.386719 85.757812 225.015625 C 85.875 222.648438 86.050781 220.285156 86.28125 217.925781 C 86.515625 215.566406 86.804688 213.214844 87.152344 210.871094 C 87.5 208.527344 87.902344 206.191406 88.363281 203.867188 C 88.828125 201.539062 89.34375 199.226562 89.921875 196.929688 C 90.496094 194.628906 91.125 192.34375 91.8125 190.074219 C 92.5 187.808594 93.242188 185.558594 94.039062 183.324219 C 94.839844 181.09375 95.691406 178.882812 96.597656 176.691406 C 97.503906 174.5 98.460938 172.335938 99.472656 170.191406 C 100.484375 168.046875 101.550781 165.933594 102.664062 163.839844 C 103.78125 161.75 104.949219 159.6875 106.164062 157.65625 C 107.382812 155.621094 108.648438 153.621094 109.964844 151.648438 C 111.277344 149.675781 112.640625 147.738281 114.050781 145.835938 C 115.460938 143.929688 116.917969 142.0625 118.417969 140.230469 C 119.921875 138.398438 121.46875 136.601562 123.054688 134.847656 C 124.644531 133.089844 126.277344 131.375 127.953125 129.699219 C 129.625 128.019531 131.339844 126.386719 133.09375 124.796875 C 134.847656 123.203125 136.640625 121.65625 138.46875 120.152344 C 140.300781 118.648438 142.164062 117.1875 144.066406 115.777344 C 145.96875 114.363281 147.902344 113 149.871094 111.683594 C 151.839844 110.367188 153.839844 109.097656 155.871094 107.878906 C 157.902344 106.660156 159.960938 105.492188 162.046875 104.375 C 164.136719 103.257812 166.25 102.191406 168.390625 101.179688 C 170.527344 100.164062 172.691406 99.203125 174.878906 98.296875 C 177.066406 97.390625 179.273438 96.535156 181.503906 95.738281 C 183.734375 94.941406 185.980469 94.195312 188.246094 93.507812 C 190.511719 92.820312 192.792969 92.1875 195.089844 91.613281 C 197.382812 91.035156 199.691406 90.515625 202.015625 90.054688 C 204.335938 89.589844 206.667969 89.1875 209.011719 88.839844 C 211.351562 88.492188 213.699219 88.199219 216.058594 87.96875 C 218.414062 87.734375 220.773438 87.5625 223.136719 87.445312 C 225.5 87.328125 227.867188 87.269531 230.234375 87.269531 C 232.601562 87.269531 234.96875 87.328125 237.332031 87.445312 C 239.695312 87.5625 242.058594 87.734375 244.414062 87.96875 C 246.769531 88.199219 249.117188 88.492188 251.460938 88.839844 C 253.800781 89.1875 256.132812 89.589844 258.453125 90.054688 C 260.777344 90.515625 263.085938 91.035156 265.382812 91.613281 C 267.679688 92.1875 269.960938 92.820312 272.222656 93.507812 C 274.488281 94.195312 276.738281 94.941406 278.964844 95.738281 C 281.195312 96.535156 283.402344 97.390625 285.589844 98.296875 C 287.777344 99.203125 289.941406 100.164062 292.082031 101.179688 C 294.21875 102.191406 296.335938 103.257812 298.421875 104.375 C 300.511719 105.492188 302.570312 106.660156 304.597656 107.878906 C 306.628906 109.097656 308.628906 110.367188 310.597656 111.683594 C 312.566406 113 314.5 114.363281 316.402344 115.777344 C 318.304688 117.1875 320.167969 118.648438 322 120.152344 C 323.828125 121.65625 325.621094 123.203125 327.375 124.796875 C 329.128906 126.386719 330.84375 128.019531 332.515625 129.699219 C 334.191406 131.375 335.824219 133.089844 337.414062 134.847656 C 339.003906 136.601562 340.546875 138.398438 342.050781 140.230469 C 343.550781 142.0625 345.007812 143.929688 346.417969 145.835938 C 347.828125 147.738281 349.191406 149.675781 350.507812 151.648438 C 351.820312 153.621094 353.085938 155.621094 354.304688 157.65625 C 355.523438 159.6875 356.6875 161.75 357.804688 163.839844 C 358.921875 165.933594 359.984375 168.046875 360.996094 170.191406 C 362.007812 172.335938 362.96875 174.5 363.875 176.691406 C 364.78125 178.882812 365.632812 181.09375 366.429688 183.324219 C 367.226562 185.558594 367.96875 187.808594 368.65625 190.074219 C 369.34375 192.34375 369.972656 194.628906 370.550781 196.929688 C 371.125 199.226562 371.644531 201.539062 372.105469 203.867188 C 372.566406 206.191406 372.972656 208.527344 373.320312 210.871094 C 373.667969 213.214844 373.957031 215.566406 374.1875 217.925781 C 374.421875 220.285156 374.59375 222.648438 374.710938 225.015625 C 374.828125 227.386719 374.882812 229.753906 374.882812 232.125 Z M 374.882812 232.125"/></g><path fill="#F5EDFF" d="M 368.4375 52.472656 C 368.4375 53.234375 368.402344 53.992188 368.328125 54.746094 C 368.253906 55.5 368.140625 56.25 367.992188 56.996094 C 367.84375 57.742188 367.660156 58.476562 367.441406 59.203125 C 367.222656 59.929688 366.964844 60.640625 366.675781 61.34375 C 366.386719 62.042969 366.0625 62.730469 365.707031 63.398438 C 365.347656 64.070312 364.957031 64.71875 364.539062 65.351562 C 364.117188 65.980469 363.664062 66.589844 363.183594 67.175781 C 362.703125 67.765625 362.195312 68.324219 361.660156 68.863281 C 361.125 69.398438 360.5625 69.910156 359.976562 70.390625 C 359.390625 70.871094 358.78125 71.324219 358.152344 71.746094 C 357.523438 72.167969 356.871094 72.554688 356.203125 72.914062 C 355.535156 73.273438 354.851562 73.597656 354.152344 73.886719 C 353.449219 74.175781 352.738281 74.433594 352.011719 74.652344 C 351.289062 74.875 350.554688 75.058594 349.808594 75.207031 C 349.066406 75.351562 348.316406 75.464844 347.5625 75.539062 C 346.808594 75.613281 346.050781 75.652344 345.292969 75.652344 C 344.535156 75.652344 343.78125 75.613281 343.027344 75.539062 C 342.273438 75.464844 341.523438 75.351562 340.78125 75.207031 C 340.035156 75.058594 339.300781 74.875 338.578125 74.652344 C 337.851562 74.433594 337.136719 74.175781 336.4375 73.886719 C 335.738281 73.597656 335.054688 73.273438 334.382812 72.914062 C 333.714844 72.554688 333.066406 72.167969 332.4375 71.746094 C 331.804688 71.324219 331.199219 70.871094 330.613281 70.390625 C 330.027344 69.910156 329.464844 69.398438 328.929688 68.863281 C 328.394531 68.324219 327.886719 67.765625 327.402344 67.175781 C 326.921875 66.589844 326.472656 65.980469 326.050781 65.351562 C 325.628906 64.71875 325.242188 64.070312 324.882812 63.398438 C 324.527344 62.730469 324.203125 62.042969 323.914062 61.34375 C 323.621094 60.640625 323.367188 59.929688 323.148438 59.203125 C 322.925781 58.476562 322.742188 57.742188 322.59375 56.996094 C 322.449219 56.25 322.335938 55.5 322.261719 54.746094 C 322.1875 53.992188 322.152344 53.234375 322.152344 52.472656 C 322.152344 51.714844 322.1875 50.957031 322.261719 50.203125 C 322.335938 49.445312 322.449219 48.699219 322.59375 47.953125 C 322.742188 47.207031 322.925781 46.472656 323.148438 45.746094 C 323.367188 45.019531 323.621094 44.304688 323.914062 43.605469 C 324.203125 42.902344 324.527344 42.21875 324.882812 41.550781 C 325.242188 40.878906 325.628906 40.230469 326.050781 39.597656 C 326.472656 38.96875 326.921875 38.359375 327.402344 37.769531 C 327.886719 37.183594 328.394531 36.621094 328.929688 36.085938 C 329.464844 35.550781 330.027344 35.039062 330.613281 34.558594 C 331.199219 34.078125 331.804688 33.625 332.4375 33.203125 C 333.066406 32.78125 333.714844 32.390625 334.382812 32.035156 C 335.054688 31.675781 335.738281 31.351562 336.4375 31.0625 C 337.136719 30.773438 337.851562 30.515625 338.578125 30.296875 C 339.300781 30.074219 340.035156 29.890625 340.78125 29.742188 C 341.523438 29.59375 342.273438 29.484375 343.027344 29.410156 C 343.78125 29.335938 344.535156 29.296875 345.292969 29.296875 C 346.050781 29.296875 346.808594 29.335938 347.5625 29.410156 C 348.316406 29.484375 349.066406 29.59375 349.808594 29.742188 C 350.554688 29.890625 351.289062 30.074219 352.011719 30.296875 C 352.738281 30.515625 353.449219 30.773438 354.152344 31.0625 C 354.851562 31.351562 355.535156 31.675781 356.203125 32.035156 C 356.871094 32.390625 357.523438 32.78125 358.152344 33.203125 C 358.78125 33.625 359.390625 34.078125 359.976562 34.558594 C 360.5625 35.039062 361.125 35.550781 361.660156 36.085938 C 362.195312 36.621094 362.703125 37.183594 363.183594 37.769531 C 363.664062 38.359375 364.117188 38.96875 364.539062 39.597656 C 364.957031 40.230469 365.347656 40.878906 365.707031 41.550781 C 366.0625 42.21875 366.386719 42.902344 366.675781 43.605469 C 366.964844 44.304688 367.222656 45.019531 367.441406 45.746094 C 367.660156 46.472656 367.84375 47.207031 367.992188 47.953125 C 368.140625 48.699219 368.253906 49.445312 368.328125 50.203125 C 368.402344 50.957031 368.4375 51.714844 368.4375 52.472656 Z M 368.4375 52.472656"/><path fill="#F5EDFF" d="M 36.03125 95.964844 C 36.03125 97.234375 35.96875 98.5 35.84375 99.765625 C 35.722656 101.027344 35.535156 102.28125 35.289062 103.527344 C 35.039062 104.773438 34.730469 106.003906 34.363281 107.21875 C 33.996094 108.433594 33.570312 109.628906 33.085938 110.800781 C 32.597656 111.976562 32.058594 113.121094 31.460938 114.242188 C 30.863281 115.363281 30.210938 116.449219 29.507812 117.507812 C 28.800781 118.5625 28.046875 119.582031 27.242188 120.5625 C 26.4375 121.542969 25.585938 122.484375 24.691406 123.382812 C 23.792969 124.28125 22.855469 125.132812 21.875 125.9375 C 20.894531 126.742188 19.878906 127.5 18.824219 128.203125 C 17.769531 128.910156 16.683594 129.5625 15.5625 130.160156 C 14.445312 130.757812 13.300781 131.300781 12.128906 131.789062 C 10.957031 132.273438 9.765625 132.699219 8.550781 133.070312 C 7.335938 133.4375 6.109375 133.746094 4.867188 133.992188 C 3.621094 134.242188 2.367188 134.425781 1.105469 134.550781 C -0.15625 134.675781 -1.421875 134.738281 -2.6875 134.738281 C -3.957031 134.738281 -5.222656 134.675781 -6.484375 134.550781 C -7.746094 134.425781 -9 134.242188 -10.242188 133.992188 C -11.488281 133.746094 -12.714844 133.4375 -13.929688 133.070312 C -15.140625 132.699219 -16.335938 132.273438 -17.507812 131.789062 C -18.679688 131.300781 -19.824219 130.757812 -20.941406 130.160156 C -22.058594 129.5625 -23.144531 128.910156 -24.199219 128.203125 C -25.253906 127.5 -26.273438 126.742188 -27.253906 125.9375 C -28.234375 125.132812 -29.171875 124.28125 -30.066406 123.382812 C -30.964844 122.484375 -31.816406 121.542969 -32.621094 120.5625 C -33.425781 119.582031 -34.179688 118.5625 -34.882812 117.507812 C -35.585938 116.449219 -36.238281 115.363281 -36.835938 114.242188 C -37.433594 113.121094 -37.976562 111.976562 -38.460938 110.800781 C -38.945312 109.628906 -39.375 108.433594 -39.742188 107.21875 C -40.109375 106.003906 -40.417969 104.773438 -40.664062 103.527344 C -40.914062 102.28125 -41.097656 101.027344 -41.222656 99.765625 C -41.347656 98.5 -41.410156 97.234375 -41.410156 95.964844 C -41.410156 94.695312 -41.347656 93.425781 -41.222656 92.164062 C -41.097656 90.898438 -40.914062 89.644531 -40.664062 88.398438 C -40.417969 87.152344 -40.109375 85.921875 -39.742188 84.707031 C -39.375 83.492188 -38.945312 82.296875 -38.460938 81.125 C -37.976562 79.953125 -37.433594 78.804688 -36.835938 77.683594 C -36.238281 76.566406 -35.585938 75.476562 -34.882812 74.421875 C -34.179688 73.367188 -33.425781 72.347656 -32.621094 71.363281 C -31.816406 70.382812 -30.964844 69.445312 -30.066406 68.546875 C -29.171875 67.648438 -28.234375 66.796875 -27.253906 65.988281 C -26.273438 65.183594 -25.253906 64.429688 -24.199219 63.722656 C -23.144531 63.019531 -22.058594 62.367188 -20.941406 61.765625 C -19.824219 61.167969 -18.679688 60.625 -17.507812 60.140625 C -16.335938 59.652344 -15.140625 59.226562 -13.929688 58.859375 C -12.714844 58.488281 -11.488281 58.179688 -10.242188 57.933594 C -9 57.6875 -7.746094 57.5 -6.484375 57.375 C -5.222656 57.25 -3.957031 57.1875 -2.6875 57.1875 C -1.421875 57.1875 -0.15625 57.25 1.105469 57.375 C 2.367188 57.5 3.621094 57.6875 4.867188 57.933594 C 6.109375 58.179688 7.335938 58.488281 8.550781 58.859375 C 9.765625 59.226562 10.957031 59.652344 12.128906 60.140625 C 13.300781 60.625 14.445312 61.167969 15.5625 61.765625 C 16.683594 62.367188 17.769531 63.019531 18.824219 63.722656 C 19.878906 64.429688 20.894531 65.183594 21.875 65.988281 C 22.855469 66.796875 23.792969 67.648438 24.691406 68.546875 C 25.585938 69.445312 26.4375 70.382812 27.242188 71.363281 C 28.046875 72.347656 28.800781 73.367188 29.507812 74.421875 C 30.210938 75.476562 30.863281 76.566406 31.460938 77.683594 C 32.058594 78.804688 32.597656 79.953125 33.085938 81.125 C 33.570312 82.296875 33.996094 83.492188 34.363281 84.707031 C 34.730469 85.921875 35.039062 87.152344 35.289062 88.398438 C 35.535156 89.644531 35.722656 90.898438 35.84375 92.164062 C 35.96875 93.425781 36.03125 94.695312 36.03125 95.964844 Z M 36.03125 95.964844"/><path fill="#F5EFEA" d="M 284.046875 79.390625 L 284.046875 273.019531 C 284.046875 281.578125 277.121094 288.507812 268.578125 288.507812 L 89.703125 288.507812 C 81.160156 288.507812 74.238281 281.578125 74.238281 273.019531 L 74.238281 39.65625 C 74.238281 31.101562 81.160156 24.167969 89.703125 24.167969 L 237.277344 24.167969 Z M 284.046875 79.390625"/><path fill="#E2D6CC" d="M 237.277344 24.167969 L 231.578125 24.167969 L 263.109375 61.402344 L 263.109375 255.03125 C 263.109375 263.585938 256.183594 270.519531 247.640625 270.519531 L 74.234375 270.519531 L 74.234375 273.019531 C 74.234375 281.574219 81.160156 288.507812 89.703125 288.507812 L 268.578125 288.507812 C 277.121094 288.507812 284.046875 281.574219 284.046875 273.019531 L 284.046875 79.390625 Z M 237.277344 24.167969"/><path fill="#FF464C" d="M 122.210938 158.683594 L 106.324219 158.683594 C 100.449219 158.683594 95.683594 153.910156 95.683594 148.027344 L 95.683594 132.117188 C 95.683594 126.230469 100.449219 121.460938 106.324219 121.460938 L 122.210938 121.460938 C 128.085938 121.460938 132.851562 126.230469 132.851562 132.117188 L 132.851562 148.027344 C 132.851562 153.910156 128.085938 158.683594 122.210938 158.683594 Z M 122.210938 158.683594"/><path fill="#FF8089" d="M 99.378906 151.417969 L 99.378906 135.511719 C 99.378906 129.625 104.144531 124.851562 110.019531 124.851562 L 125.90625 124.851562 C 127.773438 124.851562 129.523438 125.339844 131.046875 126.183594 C 129.136719 123.335938 125.890625 121.460938 122.210938 121.460938 L 106.324219 121.460938 C 100.449219 121.460938 95.683594 126.230469 95.683594 132.117188 L 95.683594 148.027344 C 95.683594 152.042969 97.902344 155.539062 101.183594 157.355469 C 100.042969 155.660156 99.378906 153.617188 99.378906 151.417969 Z M 99.378906 151.417969"/><path fill="#EF2938" d="M 126.363281 122.300781 C 127.105469 123.761719 127.535156 125.40625 127.535156 127.15625 L 127.535156 143.0625 C 127.535156 148.949219 122.769531 153.71875 116.894531 153.71875 L 101.007812 153.71875 C 99.535156 153.71875 98.132812 153.417969 96.855469 152.875 C 98.621094 156.320312 102.191406 158.683594 106.324219 158.683594 L 122.210938 158.683594 C 128.085938 158.683594 132.851562 153.910156 132.851562 148.027344 L 132.851562 132.117188 C 132.851562 127.707031 130.175781 123.921875 126.363281 122.300781 Z M 126.363281 122.300781"/><path fill="#FF464C" d="M 122.210938 102.089844 L 106.324219 102.089844 C 100.449219 102.089844 95.683594 97.320312 95.683594 91.433594 L 95.683594 75.527344 C 95.683594 69.640625 100.449219 64.867188 106.324219 64.867188 L 122.210938 64.867188 C 128.085938 64.867188 132.851562 69.640625 132.851562 75.527344 L 132.851562 91.433594 C 132.851562 97.320312 128.085938 102.089844 122.210938 102.089844 Z M 122.210938 102.089844"/><path fill="#FF8089" d="M 99.378906 94.828125 L 99.378906 78.921875 C 99.378906 73.035156 104.144531 68.261719 110.019531 68.261719 L 125.90625 68.261719 C 127.773438 68.261719 129.523438 68.746094 131.046875 69.589844 C 129.136719 66.746094 125.890625 64.871094 122.210938 64.871094 L 106.324219 64.871094 C 100.449219 64.871094 95.683594 69.640625 95.683594 75.527344 L 95.683594 91.433594 C 95.683594 95.453125 97.902344 98.945312 101.183594 100.761719 C 100.042969 99.066406 99.378906 97.023438 99.378906 94.828125 Z M 99.378906 94.828125"/><path fill="#EF2938" d="M 126.363281 65.710938 C 127.105469 67.167969 127.535156 68.8125 127.535156 70.5625 L 127.535156 86.472656 C 127.535156 92.355469 122.769531 97.128906 116.894531 97.128906 L 101.007812 97.128906 C 99.535156 97.128906 98.132812 96.828125 96.855469 96.285156 C 98.621094 99.726562 102.191406 102.089844 106.324219 102.089844 L 122.210938 102.089844 C 128.085938 102.089844 132.851562 97.320312 132.851562 91.433594 L 132.851562 75.527344 C 132.851562 71.113281 130.175781 67.332031 126.363281 65.710938 Z M 126.363281 65.710938"/><path fill="#FFC845" d="M 115.898438 95.171875 C 115.425781 95.171875 114.953125 95.113281 114.484375 95.003906 C 112.785156 94.605469 111.339844 93.5 110.496094 91.96875 L 104.78125 81.53125 C 103.144531 78.546875 104.238281 74.796875 107.222656 73.15625 C 110.207031 71.515625 113.949219 72.613281 115.585938 75.601562 L 118.011719 80.027344 L 144.351562 61.738281 C 147.144531 59.796875 150.984375 60.492188 152.921875 63.292969 C 154.863281 66.09375 154.167969 69.9375 151.371094 71.878906 L 119.40625 94.070312 C 118.367188 94.792969 117.144531 95.171875 115.898438 95.171875 Z M 115.898438 95.171875"/><path fill="#FF464C" d="M 238.28125 90.136719 L 161.15625 90.136719 C 157.484375 90.136719 154.507812 87.15625 154.507812 83.480469 C 154.507812 79.800781 157.484375 76.824219 161.15625 76.824219 L 238.28125 76.824219 C 241.957031 76.824219 244.929688 79.804688 244.929688 83.480469 C 244.929688 87.15625 241.957031 90.136719 238.28125 90.136719 Z M 238.28125 90.136719"/><path fill="#FF464C" d="M 238.28125 146.730469 L 161.15625 146.730469 C 157.484375 146.730469 154.507812 143.75 154.507812 140.070312 C 154.507812 136.394531 157.484375 133.414062 161.15625 133.414062 L 238.28125 133.414062 C 241.957031 133.414062 244.929688 136.394531 244.929688 140.070312 C 244.929688 143.75 241.957031 146.730469 238.28125 146.730469 Z M 238.28125 146.730469"/><path fill="#FF464C" d="M 238.28125 203.320312 L 161.15625 203.320312 C 157.484375 203.320312 154.507812 200.339844 154.507812 196.664062 C 154.507812 192.984375 157.484375 190.007812 161.15625 190.007812 L 238.28125 190.007812 C 241.957031 190.007812 244.929688 192.988281 244.929688 196.664062 C 244.929688 200.339844 241.957031 203.320312 238.28125 203.320312 Z M 238.28125 203.320312"/><path fill="#FF464C" d="M 122.210938 215.273438 L 106.324219 215.273438 C 100.449219 215.273438 95.683594 210.503906 95.683594 204.617188 L 95.683594 188.710938 C 95.683594 182.824219 100.449219 178.050781 106.324219 178.050781 L 122.210938 178.050781 C 128.085938 178.050781 132.851562 182.824219 132.851562 188.710938 L 132.851562 204.617188 C 132.851562 210.503906 128.085938 215.273438 122.210938 215.273438 Z M 122.210938 215.273438"/><path fill="#FF8089" d="M 99.378906 208.011719 L 99.378906 192.101562 C 99.378906 186.21875 104.144531 181.445312 110.019531 181.445312 L 125.90625 181.445312 C 127.773438 181.445312 129.523438 181.929688 131.046875 182.773438 C 129.136719 179.925781 125.890625 178.054688 122.210938 178.054688 L 106.324219 178.054688 C 100.449219 178.054688 95.683594 182.824219 95.683594 188.710938 L 95.683594 204.617188 C 95.683594 208.636719 97.902344 212.128906 101.183594 213.945312 C 100.042969 212.25 99.378906 210.207031 99.378906 208.011719 Z M 99.378906 208.011719"/><path fill="#EF2938" d="M 126.363281 178.894531 C 127.105469 180.351562 127.535156 181.996094 127.535156 183.746094 L 127.535156 199.65625 C 127.535156 205.539062 122.769531 210.308594 116.894531 210.308594 L 101.007812 210.308594 C 99.535156 210.308594 98.132812 210.011719 96.855469 209.46875 C 98.621094 212.910156 102.191406 215.273438 106.324219 215.273438 L 122.210938 215.273438 C 128.085938 215.273438 132.851562 210.503906 132.851562 204.617188 L 132.851562 188.710938 C 132.851562 184.296875 130.175781 180.515625 126.363281 178.894531 Z M 126.363281 178.894531"/><path fill="#E2D6CC" d="M 244.8125 21.429688 L 280.910156 64.070312 C 282.410156 65.847656 281.234375 68.6875 278.992188 68.6875 L 255.921875 68.6875 C 247.300781 68.6875 240.3125 61.21875 240.3125 52.007812 L 240.3125 23.28125 C 240.3125 20.757812 243.226562 19.554688 244.8125 21.429688 Z M 244.8125 21.429688"/><path fill="#61CCFB" d="M 322.765625 259.828125 C 322.765625 261.667969 322.675781 263.5 322.496094 265.332031 C 322.316406 267.160156 322.046875 268.976562 321.6875 270.777344 C 321.332031 272.582031 320.886719 274.363281 320.351562 276.121094 C 319.820312 277.878906 319.203125 279.609375 318.5 281.304688 C 317.796875 283.003906 317.011719 284.664062 316.148438 286.285156 C 315.28125 287.90625 314.339844 289.480469 313.320312 291.007812 C 312.300781 292.539062 311.210938 294.011719 310.042969 295.433594 C 308.878906 296.855469 307.648438 298.214844 306.351562 299.515625 C 305.054688 300.8125 303.695312 302.046875 302.277344 303.210938 C 300.855469 304.378906 299.386719 305.472656 297.859375 306.492188 C 296.332031 307.515625 294.761719 308.457031 293.140625 309.324219 C 291.523438 310.191406 289.863281 310.976562 288.167969 311.679688 C 286.472656 312.382812 284.746094 313.003906 282.992188 313.535156 C 281.234375 314.070312 279.457031 314.515625 277.65625 314.875 C 275.855469 315.230469 274.042969 315.5 272.214844 315.683594 C 270.390625 315.863281 268.558594 315.953125 266.722656 315.953125 C 264.886719 315.953125 263.054688 315.863281 261.230469 315.683594 C 259.402344 315.5 257.589844 315.230469 255.789062 314.875 C 253.988281 314.515625 252.210938 314.070312 250.453125 313.535156 C 248.699219 313.003906 246.972656 312.382812 245.277344 311.679688 C 243.578125 310.976562 241.921875 310.191406 240.304688 309.324219 C 238.683594 308.457031 237.113281 307.515625 235.585938 306.492188 C 234.058594 305.472656 232.585938 304.378906 231.167969 303.214844 C 229.75 302.046875 228.390625 300.8125 227.09375 299.515625 C 225.796875 298.214844 224.566406 296.855469 223.398438 295.433594 C 222.234375 294.011719 221.144531 292.539062 220.125 291.007812 C 219.105469 289.480469 218.160156 287.90625 217.296875 286.285156 C 216.429688 284.664062 215.648438 283.003906 214.945312 281.304688 C 214.242188 279.609375 213.625 277.878906 213.09375 276.121094 C 212.558594 274.363281 212.113281 272.582031 211.757812 270.777344 C 211.398438 268.976562 211.128906 267.160156 210.949219 265.332031 C 210.769531 263.5 210.679688 261.667969 210.679688 259.828125 C 210.679688 257.992188 210.769531 256.15625 210.949219 254.328125 C 211.128906 252.5 211.398438 250.683594 211.757812 248.878906 C 212.113281 247.078125 212.558594 245.296875 213.09375 243.539062 C 213.625 241.777344 214.242188 240.050781 214.945312 238.351562 C 215.648438 236.652344 216.429688 234.996094 217.296875 233.375 C 218.160156 231.753906 219.105469 230.175781 220.125 228.648438 C 221.144531 227.121094 222.234375 225.644531 223.398438 224.226562 C 224.566406 222.804688 225.796875 221.445312 227.09375 220.144531 C 228.390625 218.84375 229.75 217.613281 231.167969 216.445312 C 232.585938 215.28125 234.058594 214.1875 235.585938 213.164062 C 237.113281 212.144531 238.683594 211.199219 240.304688 210.332031 C 241.921875 209.46875 243.578125 208.683594 245.277344 207.976562 C 246.972656 207.273438 248.699219 206.65625 250.453125 206.121094 C 252.210938 205.589844 253.988281 205.144531 255.789062 204.785156 C 257.589844 204.425781 259.402344 204.15625 261.230469 203.976562 C 263.054688 203.796875 264.886719 203.707031 266.722656 203.707031 C 268.558594 203.707031 270.390625 203.796875 272.214844 203.976562 C 274.042969 204.15625 275.855469 204.425781 277.65625 204.785156 C 279.457031 205.144531 281.234375 205.589844 282.992188 206.125 C 284.746094 206.65625 286.472656 207.273438 288.167969 207.976562 C 289.863281 208.683594 291.523438 209.46875 293.140625 210.332031 C 294.761719 211.199219 296.332031 212.144531 297.859375 213.164062 C 299.386719 214.1875 300.855469 215.28125 302.277344 216.445312 C 303.695312 217.613281 305.054688 218.84375 306.351562 220.144531 C 307.648438 221.445312 308.878906 222.804688 310.042969 224.226562 C 311.210938 225.644531 312.300781 227.121094 313.320312 228.648438 C 314.339844 230.175781 315.28125 231.753906 316.148438 233.375 C 317.015625 234.996094 317.796875 236.652344 318.5 238.351562 C 319.203125 240.050781 319.820312 241.777344 320.351562 243.539062 C 320.886719 245.296875 321.332031 247.078125 321.6875 248.878906 C 322.046875 250.683594 322.316406 252.5 322.496094 254.328125 C 322.675781 256.15625 322.765625 257.992188 322.765625 259.828125 Z M 322.765625 259.828125"/><path fill="#99E5FF" d="M 213.144531 269.695312 C 213.144531 238.699219 238.234375 213.570312 269.1875 213.570312 C 293.679688 213.570312 314.484375 229.304688 322.113281 251.226562 C 317.976562 224.3125 294.753906 203.703125 266.722656 203.703125 C 235.769531 203.703125 210.679688 228.832031 210.679688 259.828125 C 210.679688 266.300781 211.785156 272.511719 213.800781 278.296875 C 213.367188 275.492188 213.144531 272.621094 213.144531 269.695312 Z M 213.144531 269.695312"/><path fill="#2DB1E0" d="M 309.371094 223.433594 C 312.527344 230.460938 314.300781 238.246094 314.300781 246.449219 C 314.300781 277.445312 289.207031 302.570312 258.253906 302.570312 C 241.175781 302.570312 225.886719 294.90625 215.609375 282.839844 C 224.382812 302.355469 243.960938 315.953125 266.722656 315.953125 C 297.675781 315.953125 322.765625 290.824219 322.765625 259.828125 C 322.765625 245.9375 317.71875 233.234375 309.371094 223.433594 Z M 309.371094 223.433594"/><path fill="#FFF" d="M 247.96875 283.253906 C 247.539062 283.253906 247.101562 283.207031 246.675781 283.113281 C 245.007812 282.753906 243.5625 281.722656 242.6875 280.253906 L 232.359375 263.019531 C 230.609375 260.097656 231.554688 256.308594 234.472656 254.554688 C 237.386719 252.804688 241.175781 253.75 242.921875 256.671875 L 249.867188 268.257812 L 290.601562 239.972656 C 293.398438 238.027344 297.234375 238.726562 299.175781 241.523438 C 301.113281 244.328125 300.417969 248.167969 297.621094 250.109375 L 251.480469 282.152344 C 250.441406 282.875 249.214844 283.253906 247.96875 283.253906 Z M 247.96875 283.253906"/><path fill="#7B0C96" d="M 281.582031 118.128906 C 278.179688 118.128906 275.421875 120.890625 275.421875 124.300781 L 275.421875 132.742188 C 275.421875 136.148438 278.179688 138.914062 281.582031 138.914062 C 284.984375 138.914062 287.742188 136.148438 287.742188 132.742188 L 287.742188 124.300781 C 287.742188 120.890625 284.984375 118.128906 281.582031 118.128906 Z M 281.582031 118.128906"/><path fill="#7B0C96" d="M 57.703125 102.410156 C 61.105469 102.410156 63.863281 99.644531 63.863281 96.238281 L 63.863281 22.96875 C 63.863281 17.257812 68.503906 12.609375 74.207031 12.609375 L 222.089844 12.609375 L 222.089844 47.132812 C 222.089844 62.417969 233.902344 74.859375 248.421875 74.859375 L 275.421875 74.859375 L 275.421875 100.761719 C 275.421875 104.171875 278.179688 106.933594 281.582031 106.933594 C 284.984375 106.933594 287.742188 104.171875 287.742188 100.761719 L 287.742188 65.367188 C 287.742188 65.324219 287.734375 65.28125 287.730469 65.238281 C 287.757812 62.894531 286.96875 60.570312 285.410156 58.730469 L 238.765625 3.632812 C 237.09375 1.65625 234.800781 0.515625 232.386719 0.3125 C 232.152344 0.285156 231.914062 0.269531 231.675781 0.269531 L 74.207031 0.269531 C 61.710938 0.269531 51.542969 10.453125 51.542969 22.96875 L 51.542969 96.238281 C 51.542969 99.644531 54.300781 102.410156 57.703125 102.410156 Z M 234.414062 47.128906 L 234.414062 19.207031 L 271.09375 62.519531 L 248.421875 62.519531 C 240.699219 62.519531 234.414062 55.617188 234.414062 47.128906 Z M 234.414062 47.128906"/><path fill="#7B0C96" d="M 57.703125 139.324219 C 61.105469 139.324219 63.863281 136.5625 63.863281 133.15625 L 63.863281 119.363281 C 63.863281 115.957031 61.105469 113.195312 57.703125 113.195312 C 54.300781 113.195312 51.542969 115.957031 51.542969 119.363281 L 51.542969 133.15625 C 51.542969 136.5625 54.300781 139.324219 57.703125 139.324219 Z M 57.703125 139.324219"/><path fill="#7B0C96" d="M 291.785156 303.847656 C 289.136719 305.175781 286.359375 306.300781 283.53125 307.191406 C 280.289062 308.214844 278.484375 311.679688 279.503906 314.929688 C 280.332031 317.5625 282.761719 319.246094 285.378906 319.246094 C 285.992188 319.246094 286.617188 319.15625 287.234375 318.960938 C 290.679688 317.875 294.066406 316.503906 297.300781 314.882812 C 300.34375 313.355469 301.574219 309.648438 300.050781 306.601562 C 298.527344 303.554688 294.828125 302.320312 291.785156 303.847656 Z M 291.785156 303.847656"/><path fill="#7B0C96" d="M 287.742188 190.601562 L 287.742188 156.339844 C 287.742188 152.929688 284.984375 150.167969 281.582031 150.167969 C 278.179688 150.167969 275.421875 152.929688 275.421875 156.339844 L 275.421875 187.203125 C 271.519531 186.511719 267.511719 186.128906 263.410156 186.128906 C 225.535156 186.128906 194.714844 216.992188 194.714844 254.921875 C 194.714844 264.515625 196.679688 273.800781 200.390625 282.339844 L 74.207031 282.339844 C 68.503906 282.339844 63.863281 277.695312 63.863281 271.980469 L 63.863281 176.339844 C 63.863281 172.933594 61.105469 170.167969 57.703125 170.167969 C 54.300781 170.167969 51.542969 172.933594 51.542969 176.339844 L 51.542969 271.980469 C 51.542969 284.5 61.710938 294.679688 74.207031 294.679688 L 207.355469 294.679688 C 209.582031 297.8125 212.066406 300.789062 214.835938 303.566406 C 218.898438 307.632812 223.457031 311.179688 228.390625 314.113281 C 231.773438 316.125 235.347656 317.851562 239.011719 319.246094 C 243.410156 320.921875 248 322.140625 252.664062 322.875 C 254.605469 323.183594 256.589844 323.40625 258.566406 323.546875 C 258.710938 323.554688 258.855469 323.558594 259 323.558594 C 262.207031 323.558594 264.910156 321.070312 265.140625 317.820312 C 265.375 314.421875 262.816406 311.472656 259.421875 311.238281 C 257.800781 311.125 256.167969 310.941406 254.578125 310.6875 C 250.757812 310.085938 246.992188 309.085938 243.390625 307.714844 C 240.382812 306.570312 237.453125 305.152344 234.675781 303.503906 C 230.628906 301.097656 226.882812 298.183594 223.546875 294.839844 C 212.902344 284.179688 207.035156 270 207.035156 254.921875 C 207.035156 223.792969 232.328125 198.46875 263.410156 198.46875 C 294.496094 198.46875 319.785156 223.792969 319.785156 254.921875 C 319.785156 260.746094 318.902344 266.488281 317.167969 271.976562 C 316.34375 274.585938 315.320312 277.15625 314.121094 279.617188 C 312.667969 282.601562 310.9375 285.484375 308.96875 288.179688 C 306.960938 290.933594 307.5625 294.792969 310.3125 296.800781 C 313.054688 298.808594 316.910156 298.207031 318.917969 295.457031 C 321.3125 292.171875 323.425781 288.664062 325.195312 285.019531 C 326.65625 282.019531 327.910156 278.882812 328.914062 275.703125 C 331.03125 269.003906 332.105469 262.011719 332.105469 254.921875 C 332.105469 225.566406 313.644531 200.460938 287.742188 190.601562 Z M 287.742188 190.601562"/><path fill="#7B0C96" d="M 57.703125 160.8125 C 61.105469 160.8125 63.863281 158.050781 63.863281 154.644531 L 63.863281 154.132812 C 63.863281 150.722656 61.105469 147.964844 57.703125 147.964844 C 54.300781 147.964844 51.542969 150.722656 51.542969 154.132812 L 51.542969 154.644531 C 51.542969 158.050781 54.300781 160.8125 57.703125 160.8125 Z M 57.703125 160.8125"/></svg>