<svg xmlns="http://www.w3.org/2000/svg" width="375" viewBox="0 0 375 375" height="375" version="1.0"><defs><clipPath id="a"><path d="M 0 95 L 375 95 L 375 330.75 L 0 330.75 Z M 0 95"/></clipPath><clipPath id="b"><path d="M 227 37.5 L 246 37.5 L 246 56 L 227 56 Z M 227 37.5"/></clipPath></defs><path fill="#36D2F8" d="M 271.335938 323.394531 L 271.335938 119.210938 C 271.335938 116.3125 268.988281 113.964844 266.09375 113.964844 L 126.566406 113.964844 L 126.566406 328.640625 L 266.09375 328.640625 C 268.988281 328.640625 271.335938 326.292969 271.335938 323.394531 Z M 271.335938 323.394531"/><path fill="#30B1F9" d="M 271.320312 119.222656 L 271.320312 323.410156 C 271.320312 326.304688 268.988281 328.640625 266.09375 328.640625 L 260.128906 328.640625 C 263.023438 328.640625 265.386719 326.304688 265.386719 323.410156 L 265.386719 119.222656 C 265.386719 116.328125 263.023438 113.964844 260.128906 113.964844 L 266.09375 113.964844 C 268.988281 113.964844 271.320312 116.328125 271.320312 119.222656 Z M 271.320312 119.222656"/><path fill="#EFEFEF" d="M 258.238281 119.222656 L 258.238281 323.410156 C 258.238281 326.304688 255.875 328.640625 252.984375 328.640625 L 118.710938 328.640625 C 115.820312 328.640625 113.457031 326.304688 113.457031 323.410156 L 113.457031 119.222656 C 113.457031 116.328125 115.820312 113.964844 118.710938 113.964844 L 252.984375 113.964844 C 255.875 113.964844 258.238281 116.328125 258.238281 119.222656 Z M 258.238281 119.222656"/><path fill="#73B760" d="M 248.082031 286.699219 L 248.082031 299.46875 C 248.082031 304.492188 246.015625 308.957031 242.765625 312.265625 C 239.578125 315.429688 235.234375 317.4375 230.394531 317.527344 L 113.457031 317.527344 L 113.457031 286.699219 Z M 248.082031 286.699219"/><path fill="#ACDA77" d="M 210.527344 282.703125 L 84.503906 282.703125 L 84.503906 290.585938 C 84.503906 300.5625 92.582031 308.648438 102.546875 308.648438 L 228.914062 308.648438 L 210.53125 290.109375 Z M 210.527344 282.703125"/><path fill="#FFF" d="M 100.363281 129.105469 L 100.363281 282.703125 L 210.53125 282.703125 L 210.53125 289.84375 C 210.53125 299.96875 218.804688 308.859375 228.914062 308.648438 C 233.746094 308.566406 238.09375 306.5625 241.296875 303.386719 C 244.550781 300.101562 246.605469 295.613281 246.605469 290.59375 L 246.605469 129.105469 C 246.605469 126.207031 244.257812 123.859375 241.363281 123.859375 L 105.605469 123.859375 C 102.710938 123.859375 100.363281 126.207031 100.363281 129.105469 Z M 100.363281 129.105469"/><path fill="#9B7CD7" d="M 204.960938 109.6875 L 204.960938 128.398438 C 204.960938 129.847656 203.789062 131.023438 202.339844 131.023438 L 144.636719 131.023438 C 143.191406 131.023438 142.015625 129.847656 142.015625 128.398438 L 142.015625 109.6875 C 142.015625 108.238281 143.191406 107.0625 144.636719 107.0625 L 162.507812 107.0625 C 162.507812 101.554688 167.433594 97.070312 173.488281 97.070312 C 179.542969 97.070312 184.441406 101.554688 184.441406 107.0625 L 202.339844 107.0625 C 203.789062 107.0625 204.960938 108.238281 204.960938 109.6875 Z M 204.960938 109.6875"/><path fill="#FFF" d="M 177.417969 108.226562 C 177.417969 110.402344 175.660156 112.164062 173.488281 112.164062 C 171.316406 112.164062 169.558594 110.402344 169.558594 108.226562 C 169.558594 106.054688 171.316406 104.292969 173.488281 104.292969 C 175.660156 104.292969 177.417969 106.054688 177.417969 108.226562 Z M 177.417969 108.226562"/><path fill="#FFF" d="M 134.269531 251.65625 L 134.269531 266.589844 C 134.269531 268.210938 132.960938 269.523438 131.339844 269.523438 L 116.394531 269.523438 C 114.777344 269.523438 113.464844 268.210938 113.464844 266.589844 L 113.464844 251.65625 C 113.464844 250.035156 114.777344 248.722656 116.394531 248.722656 L 131.339844 248.722656 C 132.960938 248.722656 134.269531 250.035156 134.269531 251.65625 Z M 134.269531 251.65625"/><path fill="#CACDD0" d="M 131.34375 270.988281 L 116.394531 270.988281 C 113.96875 270.988281 112 269.015625 112 266.589844 L 112 251.652344 C 112 249.230469 113.96875 247.253906 116.394531 247.253906 L 131.34375 247.253906 C 133.765625 247.253906 135.738281 249.230469 135.738281 251.652344 L 135.738281 266.589844 C 135.738281 269.015625 133.765625 270.988281 131.34375 270.988281 Z M 116.394531 250.1875 C 115.585938 250.1875 114.929688 250.84375 114.929688 251.652344 L 114.929688 266.589844 C 114.929688 267.398438 115.585938 268.054688 116.394531 268.054688 L 131.34375 268.054688 C 132.148438 268.054688 132.808594 267.398438 132.808594 266.589844 L 132.808594 251.652344 C 132.808594 250.84375 132.148438 250.1875 131.34375 250.1875 Z M 116.394531 250.1875"/><path fill="#CACDD0" d="M 207.644531 256.101562 L 149.839844 256.101562 C 149.027344 256.101562 148.375 255.445312 148.375 254.632812 C 148.375 253.824219 149.027344 253.167969 149.839844 253.167969 L 207.644531 253.167969 C 208.457031 253.167969 209.109375 253.824219 209.109375 254.632812 C 209.109375 255.445312 208.457031 256.101562 207.644531 256.101562 Z M 207.644531 256.101562"/><path fill="#CACDD0" d="M 233.503906 270.988281 L 224.714844 270.988281 C 223.90625 270.988281 223.25 270.332031 223.25 269.523438 C 223.25 268.710938 223.90625 268.054688 224.714844 268.054688 L 233.503906 268.054688 C 234.3125 268.054688 234.96875 268.710938 234.96875 269.523438 C 234.96875 270.332031 234.3125 270.988281 233.503906 270.988281 Z M 233.503906 270.988281"/><path fill="#CACDD0" d="M 213.699219 270.988281 L 197.175781 270.988281 C 196.367188 270.988281 195.710938 270.332031 195.710938 269.523438 C 195.710938 268.710938 196.367188 268.054688 197.175781 268.054688 L 213.699219 268.054688 C 214.507812 268.054688 215.164062 268.710938 215.164062 269.523438 C 215.164062 270.332031 214.507812 270.988281 213.699219 270.988281 Z M 186.164062 270.988281 L 169.644531 270.988281 C 168.832031 270.988281 168.179688 270.332031 168.179688 269.523438 C 168.179688 268.710938 168.832031 268.054688 169.644531 268.054688 L 186.164062 268.054688 C 186.976562 268.054688 187.628906 268.710938 187.628906 269.523438 C 187.628906 270.332031 186.976562 270.988281 186.164062 270.988281 Z M 186.164062 270.988281"/><path fill="#CACDD0" d="M 158.628906 270.988281 L 149.839844 270.988281 C 149.027344 270.988281 148.375 270.332031 148.375 269.523438 C 148.375 268.710938 149.027344 268.054688 149.839844 268.054688 L 158.628906 268.054688 C 159.4375 268.054688 160.09375 268.710938 160.09375 269.523438 C 160.09375 270.332031 159.4375 270.988281 158.628906 270.988281 Z M 158.628906 270.988281"/><path fill="#FFF" d="M 134.269531 216.242188 L 134.269531 231.175781 C 134.269531 232.796875 132.960938 234.109375 131.339844 234.109375 L 116.394531 234.109375 C 114.777344 234.109375 113.464844 232.796875 113.464844 231.175781 L 113.464844 216.242188 C 113.464844 214.621094 114.777344 213.308594 116.394531 213.308594 L 131.339844 213.308594 C 132.960938 213.308594 134.269531 214.621094 134.269531 216.242188 Z M 134.269531 216.242188"/><path fill="#CACDD0" d="M 131.34375 235.578125 L 116.394531 235.578125 C 113.96875 235.578125 112 233.605469 112 231.179688 L 112 216.242188 C 112 213.816406 113.96875 211.84375 116.394531 211.84375 L 131.34375 211.84375 C 133.765625 211.84375 135.738281 213.816406 135.738281 216.242188 L 135.738281 231.179688 C 135.738281 233.605469 133.765625 235.578125 131.34375 235.578125 Z M 116.394531 214.777344 C 115.585938 214.777344 114.929688 215.433594 114.929688 216.242188 L 114.929688 231.179688 C 114.929688 231.988281 115.585938 232.644531 116.394531 232.644531 L 131.34375 232.644531 C 132.148438 232.644531 132.808594 231.988281 132.808594 231.179688 L 132.808594 216.242188 C 132.808594 215.433594 132.148438 214.777344 131.34375 214.777344 Z M 116.394531 214.777344"/><path fill="#FFF" d="M 120.855469 222.507812 L 124.851562 226.507812 L 137.644531 213.703125"/><path fill="#CACDD0" d="M 207.644531 220.6875 L 149.839844 220.6875 C 149.027344 220.6875 148.375 220.03125 148.375 219.21875 C 148.375 218.410156 149.027344 217.753906 149.839844 217.753906 L 207.644531 217.753906 C 208.457031 217.753906 209.109375 218.410156 209.109375 219.21875 C 209.109375 220.03125 208.457031 220.6875 207.644531 220.6875 Z M 207.644531 220.6875"/><path fill="#CACDD0" d="M 233.503906 235.578125 L 224.714844 235.578125 C 223.90625 235.578125 223.25 234.921875 223.25 234.109375 C 223.25 233.300781 223.90625 232.644531 224.714844 232.644531 L 233.503906 232.644531 C 234.3125 232.644531 234.96875 233.300781 234.96875 234.109375 C 234.96875 234.921875 234.3125 235.578125 233.503906 235.578125 Z M 233.503906 235.578125"/><path fill="#CACDD0" d="M 213.699219 235.578125 L 197.175781 235.578125 C 196.367188 235.578125 195.710938 234.921875 195.710938 234.109375 C 195.710938 233.300781 196.367188 232.644531 197.175781 232.644531 L 213.699219 232.644531 C 214.507812 232.644531 215.164062 233.300781 215.164062 234.109375 C 215.164062 234.921875 214.507812 235.578125 213.699219 235.578125 Z M 186.164062 235.578125 L 169.644531 235.578125 C 168.832031 235.578125 168.179688 234.921875 168.179688 234.109375 C 168.179688 233.300781 168.832031 232.644531 169.644531 232.644531 L 186.164062 232.644531 C 186.976562 232.644531 187.628906 233.300781 187.628906 234.109375 C 187.628906 234.921875 186.976562 235.578125 186.164062 235.578125 Z M 186.164062 235.578125"/><path fill="#CACDD0" d="M 158.628906 235.578125 L 149.839844 235.578125 C 149.027344 235.578125 148.375 234.921875 148.375 234.109375 C 148.375 233.300781 149.027344 232.644531 149.839844 232.644531 L 158.628906 232.644531 C 159.4375 232.644531 160.09375 233.300781 160.09375 234.109375 C 160.09375 234.921875 159.4375 235.578125 158.628906 235.578125 Z M 158.628906 235.578125"/><path fill="#FFF" d="M 134.269531 180.828125 L 134.269531 195.765625 C 134.269531 197.386719 132.960938 198.699219 131.339844 198.699219 L 116.394531 198.699219 C 114.777344 198.699219 113.464844 197.386719 113.464844 195.765625 L 113.464844 180.828125 C 113.464844 179.210938 114.777344 177.898438 116.394531 177.898438 L 131.339844 177.898438 C 132.960938 177.898438 134.269531 179.210938 134.269531 180.828125 Z M 134.269531 180.828125"/><path fill="#CACDD0" d="M 131.34375 200.164062 L 116.394531 200.164062 C 113.96875 200.164062 112 198.191406 112 195.765625 L 112 180.832031 C 112 178.40625 113.96875 176.429688 116.394531 176.429688 L 131.34375 176.429688 C 133.765625 176.429688 135.738281 178.40625 135.738281 180.832031 L 135.738281 195.765625 C 135.738281 198.191406 133.765625 200.164062 131.34375 200.164062 Z M 116.394531 179.363281 C 115.585938 179.363281 114.929688 180.019531 114.929688 180.832031 L 114.929688 195.765625 C 114.929688 196.574219 115.585938 197.230469 116.394531 197.230469 L 131.34375 197.230469 C 132.148438 197.230469 132.808594 196.574219 132.808594 195.765625 L 132.808594 180.832031 C 132.808594 180.019531 132.148438 179.363281 131.34375 179.363281 Z M 116.394531 179.363281"/><path fill="#FFF" d="M 120.855469 187.09375 L 124.851562 191.097656 L 137.644531 178.289062"/><path fill="#CACDD0" d="M 207.644531 185.273438 L 149.839844 185.273438 C 149.027344 185.273438 148.375 184.617188 148.375 183.808594 C 148.375 183 149.027344 182.34375 149.839844 182.34375 L 207.644531 182.34375 C 208.457031 182.34375 209.109375 183 209.109375 183.808594 C 209.109375 184.617188 208.457031 185.273438 207.644531 185.273438 Z M 207.644531 185.273438"/><path fill="#CACDD0" d="M 233.503906 200.164062 L 224.714844 200.164062 C 223.90625 200.164062 223.25 199.507812 223.25 198.699219 C 223.25 197.886719 223.90625 197.230469 224.714844 197.230469 L 233.503906 197.230469 C 234.3125 197.230469 234.96875 197.886719 234.96875 198.699219 C 234.96875 199.507812 234.3125 200.164062 233.503906 200.164062 Z M 233.503906 200.164062"/><path fill="#CACDD0" d="M 213.699219 200.164062 L 197.175781 200.164062 C 196.367188 200.164062 195.710938 199.507812 195.710938 198.699219 C 195.710938 197.886719 196.367188 197.230469 197.175781 197.230469 L 213.699219 197.230469 C 214.507812 197.230469 215.164062 197.886719 215.164062 198.699219 C 215.164062 199.507812 214.507812 200.164062 213.699219 200.164062 Z M 186.164062 200.164062 L 169.644531 200.164062 C 168.832031 200.164062 168.179688 199.507812 168.179688 198.699219 C 168.179688 197.886719 168.832031 197.230469 169.644531 197.230469 L 186.164062 197.230469 C 186.976562 197.230469 187.628906 197.886719 187.628906 198.699219 C 187.628906 199.507812 186.976562 200.164062 186.164062 200.164062 Z M 186.164062 200.164062"/><path fill="#CACDD0" d="M 158.628906 200.164062 L 149.839844 200.164062 C 149.027344 200.164062 148.375 199.507812 148.375 198.699219 C 148.375 197.886719 149.027344 197.230469 149.839844 197.230469 L 158.628906 197.230469 C 159.4375 197.230469 160.09375 197.886719 160.09375 198.699219 C 160.09375 199.507812 159.4375 200.164062 158.628906 200.164062 Z M 158.628906 200.164062"/><path fill="#FFF" d="M 134.269531 145.417969 L 134.269531 160.351562 C 134.269531 161.972656 132.960938 163.285156 131.339844 163.285156 L 116.394531 163.285156 C 114.777344 163.285156 113.464844 161.972656 113.464844 160.351562 L 113.464844 145.417969 C 113.464844 143.796875 114.777344 142.484375 116.394531 142.484375 L 131.339844 142.484375 C 132.960938 142.484375 134.269531 143.796875 134.269531 145.417969 Z M 134.269531 145.417969"/><path fill="#CACDD0" d="M 131.34375 164.75 L 116.394531 164.75 C 113.96875 164.75 112 162.777344 112 160.351562 L 112 145.417969 C 112 142.992188 113.96875 141.019531 116.394531 141.019531 L 131.34375 141.019531 C 133.765625 141.019531 135.738281 142.992188 135.738281 145.417969 L 135.738281 160.351562 C 135.738281 162.777344 133.765625 164.75 131.34375 164.75 Z M 116.394531 143.949219 C 115.585938 143.949219 114.929688 144.609375 114.929688 145.417969 L 114.929688 160.351562 C 114.929688 161.160156 115.585938 161.820312 116.394531 161.820312 L 131.34375 161.820312 C 132.148438 161.820312 132.808594 161.160156 132.808594 160.351562 L 132.808594 145.417969 C 132.808594 144.609375 132.148438 143.949219 131.34375 143.949219 Z M 116.394531 143.949219"/><path fill="#FFF" d="M 120.855469 151.683594 L 124.851562 155.683594 L 137.644531 142.878906"/><path fill="#CACDD0" d="M 207.644531 149.863281 L 149.839844 149.863281 C 149.027344 149.863281 148.375 149.207031 148.375 148.398438 C 148.375 147.585938 149.027344 146.929688 149.839844 146.929688 L 207.644531 146.929688 C 208.457031 146.929688 209.109375 147.585938 209.109375 148.398438 C 209.109375 149.207031 208.457031 149.863281 207.644531 149.863281 Z M 207.644531 149.863281"/><path fill="#CACDD0" d="M 233.503906 164.75 L 224.714844 164.75 C 223.90625 164.75 223.25 164.097656 223.25 163.285156 C 223.25 162.476562 223.90625 161.820312 224.714844 161.820312 L 233.503906 161.820312 C 234.3125 161.820312 234.96875 162.476562 234.96875 163.285156 C 234.96875 164.097656 234.3125 164.75 233.503906 164.75 Z M 233.503906 164.75"/><path fill="#CACDD0" d="M 213.699219 164.75 L 197.175781 164.75 C 196.367188 164.75 195.710938 164.097656 195.710938 163.285156 C 195.710938 162.476562 196.367188 161.820312 197.175781 161.820312 L 213.699219 161.820312 C 214.507812 161.820312 215.164062 162.476562 215.164062 163.285156 C 215.164062 164.097656 214.507812 164.75 213.699219 164.75 Z M 186.164062 164.75 L 169.644531 164.75 C 168.832031 164.75 168.179688 164.097656 168.179688 163.285156 C 168.179688 162.476562 168.832031 161.820312 169.644531 161.820312 L 186.164062 161.820312 C 186.976562 161.820312 187.628906 162.476562 187.628906 163.285156 C 187.628906 164.097656 186.976562 164.75 186.164062 164.75 Z M 186.164062 164.75"/><path fill="#CACDD0" d="M 158.628906 164.75 L 149.839844 164.75 C 149.027344 164.75 148.375 164.097656 148.375 163.285156 C 148.375 162.476562 149.027344 161.820312 149.839844 161.820312 L 158.628906 161.820312 C 159.4375 161.820312 160.09375 162.476562 160.09375 163.285156 C 160.09375 164.097656 159.4375 164.75 158.628906 164.75 Z M 158.628906 164.75"/><path fill="#E2FBFF" d="M 64.472656 178.457031 L 49.726562 178.453125"/><path fill="#FFF" d="M 314.460938 188.296875 L 314.460938 205.359375 L 329.222656 196.828125 Z M 314.460938 188.296875"/><path fill="#E2FBFF" d="M 229.039062 46.683594 L 243.789062 46.679688"/><path fill="#FFF" d="M 113.160156 73.683594 C 113.160156 77.597656 116.320312 80.761719 120.207031 80.761719 C 124.089844 80.761719 127.253906 77.597656 127.253906 73.683594 C 127.253906 69.792969 124.089844 66.628906 120.207031 66.628906"/><path fill="#C9A077" d="M 60.957031 318.296875 L 70.335938 265.878906 C 71.023438 262.046875 68.082031 258.527344 64.191406 258.527344 L 18.527344 258.527344 C 14.636719 258.527344 11.691406 262.046875 12.378906 265.878906 L 21.761719 318.296875 Z M 60.957031 318.296875"/><path fill="#F9C354" d="M 46.84375 230.113281 L 60.566406 230.113281 L 60.566406 258.539062 L 46.84375 258.539062 Z M 46.84375 230.113281"/><path fill="#F9C354" d="M 60.566406 230.113281 L 60.566406 215.222656 C 60.566406 212.519531 58.378906 210.328125 55.675781 210.328125 L 51.734375 210.328125 C 49.03125 210.328125 46.84375 212.519531 46.84375 215.222656 L 46.84375 230.113281 Z M 60.566406 230.113281"/><path fill="#FCA536" d="M 56.835938 210.472656 C 54.679688 210.96875 53.089844 212.9375 53.089844 215.222656 L 53.089844 258.535156 L 46.84375 258.535156 L 46.84375 215.222656 C 46.84375 212.53125 49.03125 210.3125 51.746094 210.3125 L 55.679688 210.3125 C 56.085938 210.3125 56.460938 210.375 56.835938 210.472656 Z M 56.835938 210.472656"/><path fill="#EFEFEF" d="M 35.183594 216.628906 L 37.570312 258.535156 L 22.148438 258.535156 L 24.539062 216.628906 C 24.699219 213.804688 27.035156 211.597656 29.859375 211.597656 C 32.6875 211.597656 35.023438 213.804688 35.183594 216.628906 Z M 35.183594 216.628906"/><path fill="#CCD0D3" d="M 35.097656 216.046875 C 34.792969 215.984375 34.519531 215.957031 34.210938 215.957031 C 31.394531 215.957031 29.039062 218.160156 28.882812 220.980469 L 26.742188 258.550781 L 22.148438 258.550781 L 24.535156 216.628906 C 24.691406 213.808594 27.046875 211.605469 29.863281 211.605469 C 32.496094 211.605469 34.671875 213.503906 35.097656 216.046875 Z M 35.097656 216.046875"/><path fill="#F9C354" d="M 351.441406 242.351562 L 346.160156 249.484375"/><path fill="#FCA536" d="M 360.21875 242.238281 L 358.851562 244.085938 C 357.859375 245.425781 355.949219 245.695312 354.585938 244.6875 L 348.265625 240.019531 C 346.902344 239.011719 346.601562 237.105469 347.59375 235.765625 L 348.960938 233.917969 C 349.957031 232.578125 351.867188 232.304688 353.230469 233.3125 L 359.550781 237.984375 C 360.914062 238.992188 361.210938 240.898438 360.21875 242.238281 Z M 360.21875 242.238281"/><path fill="#F9C354" d="M 296.726562 242.351562 L 302.007812 249.484375"/><path fill="#FCA536" d="M 287.953125 242.238281 L 289.316406 244.085938 C 290.3125 245.425781 292.222656 245.695312 293.585938 244.6875 L 299.90625 240.019531 C 301.269531 239.011719 301.570312 237.105469 300.574219 235.765625 L 299.207031 233.917969 C 298.214844 232.578125 296.304688 232.304688 294.941406 233.3125 L 288.621094 237.984375 C 287.257812 238.992188 286.957031 240.898438 287.953125 242.238281 Z M 287.953125 242.238281"/><path fill="#FCA536" d="M 331.183594 237.390625 C 331.183594 241.332031 327.996094 244.523438 324.058594 244.523438 C 320.121094 244.523438 316.933594 241.332031 316.933594 237.390625 C 316.933594 233.449219 320.121094 230.226562 324.058594 230.226562 C 327.996094 230.226562 331.183594 233.449219 331.183594 237.390625 Z M 331.183594 237.390625"/><path fill="#F9C354" d="M 363.722656 278.597656 C 363.722656 300.546875 345.988281 318.296875 324.0625 318.296875 C 302.183594 318.296875 284.449219 300.546875 284.449219 278.597656 C 284.449219 256.699219 302.183594 238.949219 324.0625 238.949219 C 345.988281 238.949219 363.722656 256.699219 363.722656 278.597656 Z M 363.722656 278.597656"/><path fill="#FFF" d="M 353.269531 278.605469 C 353.269531 294.765625 340.210938 307.832031 324.066406 307.832031 C 307.957031 307.832031 294.902344 294.765625 294.902344 278.605469 C 294.902344 262.480469 307.957031 249.410156 324.066406 249.410156 C 340.210938 249.410156 353.269531 262.480469 353.269531 278.605469 Z M 353.269531 278.605469"/><path fill="#FFF" d="M 332.976562 269.851562 L 320.382812 282.457031"/><g clip-path="url(#a)"><path fill="#5C6481" d="M 373.535156 316.835938 L 339.285156 316.835938 C 354.464844 310.765625 365.1875 295.898438 365.1875 278.597656 C 365.1875 265.753906 359.269531 254.289062 350.011719 246.75 L 351.738281 244.40625 L 353.703125 245.871094 C 354.523438 246.457031 355.488281 246.75 356.425781 246.75 C 357.804688 246.75 359.152344 246.132812 360.03125 244.960938 L 361.40625 243.113281 C 362.871094 241.089844 362.460938 238.304688 360.410156 236.808594 L 354.113281 232.148438 C 352.089844 230.652344 349.25 231.0625 347.785156 233.054688 L 346.40625 234.902344 C 345 236.78125 345.265625 239.625 347.402344 241.207031 L 349.394531 242.675781 L 347.667969 244.992188 C 343.183594 241.792969 338.058594 239.535156 332.550781 238.394531 C 332.609375 238.070312 332.636719 237.746094 332.636719 237.394531 C 332.636719 236.515625 332.519531 235.695312 332.257812 234.902344 C 332.257812 234.875 332.226562 234.875 332.226562 234.84375 C 334.714844 232.558594 336.152344 229.417969 336.152344 226.046875 C 336.152344 219.359375 330.734375 213.9375 324.082031 213.9375 C 317.402344 213.9375 311.953125 219.359375 311.953125 226.046875 C 311.953125 229.417969 313.417969 232.527344 315.878906 234.816406 C 315.878906 234.84375 315.847656 234.84375 315.847656 234.875 L 315.847656 234.902344 C 315.617188 235.695312 315.46875 236.515625 315.46875 237.394531 C 315.46875 237.746094 315.5 238.070312 315.558594 238.394531 C 310.050781 239.535156 304.953125 241.792969 300.5 244.960938 L 298.769531 242.675781 L 300.761719 241.207031 C 302.871094 239.652344 303.164062 236.78125 301.757812 234.902344 L 300.382812 233.054688 C 298.917969 231.0625 296.074219 230.652344 294.082031 232.148438 L 287.753906 236.808594 C 285.910156 238.160156 285.148438 240.914062 286.789062 243.113281 L 288.136719 244.960938 C 289.628906 246.957031 292.410156 247.335938 294.464844 245.871094 L 296.425781 244.40625 L 298.125 246.722656 C 288.898438 254.289062 282.980469 265.753906 282.980469 278.597656 C 282.980469 295.898438 293.699219 310.738281 308.820312 316.835938 L 272.8125 316.835938 L 272.8125 119.214844 C 272.8125 115.519531 269.796875 112.5 266.105469 112.5 L 206.425781 112.5 L 206.425781 109.6875 C 206.425781 107.425781 204.582031 105.609375 202.324219 105.609375 L 185.800781 105.609375 C 185.011719 99.980469 179.796875 95.609375 173.496094 95.609375 C 167.167969 95.609375 161.921875 99.980469 161.132812 105.609375 L 144.640625 105.609375 C 142.382812 105.609375 140.539062 107.425781 140.539062 109.6875 L 140.539062 112.5 C 140.039062 112.5 118.710938 112.5 118.710938 112.5 C 115.019531 112.5 112.003906 115.519531 112.003906 119.214844 L 112.003906 122.382812 L 105.613281 122.382812 C 101.894531 122.382812 98.90625 125.402344 98.90625 129.097656 L 98.90625 281.238281 L 84.492188 281.238281 C 83.703125 281.238281 83.027344 281.882812 83.027344 282.703125 L 83.027344 290.589844 C 83.027344 301.355469 91.789062 310.121094 102.539062 310.121094 L 112.003906 310.121094 L 112.003906 316.835938 L 62.726562 316.835938 C 64.660156 305.898438 71.601562 267.277344 71.808594 265.753906 C 71.808594 265.753906 71.808594 265.753906 71.808594 265.722656 C 72.363281 261.355469 68.847656 257.132812 64.394531 257.074219 C 62.871094 257.042969 63.164062 257.074219 62.023438 257.074219 L 62.023438 218.246094 L 62.84375 218.246094 C 64.21875 218.246094 65.359375 219.359375 65.359375 220.738281 L 65.359375 240.183594 C 65.359375 241.003906 66.007812 241.648438 66.824219 241.648438 C 67.617188 241.648438 68.289062 241.003906 68.289062 240.183594 L 68.289062 220.738281 C 68.289062 217.75 65.832031 215.3125 62.84375 215.3125 L 62.023438 215.3125 L 62.023438 215.226562 C 62.023438 211.707031 59.179688 208.863281 55.664062 208.863281 L 51.738281 208.863281 C 48.222656 208.863281 45.382812 211.707031 45.382812 215.226562 L 45.382812 257.074219 L 38.9375 257.074219 L 36.652344 216.546875 C 36.445312 212.9375 33.457031 210.125 29.855469 210.125 C 26.25 210.125 23.292969 212.9375 23.085938 216.546875 L 20.773438 257.074219 L 18.515625 257.074219 C 13.683594 257.074219 10.136719 261.414062 10.929688 266.132812 C 16.640625 298.128906 18.867188 310.53125 19.628906 314.8125 C 19.628906 314.8125 19.628906 314.871094 19.6875 315.164062 C 19.6875 315.195312 19.6875 315.222656 19.71875 315.253906 C 19.71875 315.371094 19.835938 315.898438 19.863281 316.164062 L 19.863281 316.191406 C 19.863281 316.222656 19.863281 316.222656 19.894531 316.25 C 19.894531 316.28125 19.894531 316.28125 19.894531 316.308594 C 19.894531 316.367188 19.894531 316.398438 19.921875 316.425781 C 19.921875 316.542969 19.949219 316.691406 19.980469 316.835938 L 1.464844 316.835938 C 0.644531 316.835938 0 317.484375 0 318.304688 C 0 319.09375 0.644531 319.769531 1.464844 319.769531 L 112.003906 319.769531 L 112.003906 323.40625 C 112.003906 327.101562 115.019531 330.121094 118.710938 330.121094 L 266.105469 330.121094 C 269.796875 330.121094 272.8125 327.101562 272.8125 323.40625 L 272.8125 319.769531 L 373.535156 319.769531 C 374.324219 319.769531 375 319.09375 375 318.304688 C 375 317.484375 374.324219 316.835938 373.535156 316.835938 Z M 48.3125 215.226562 C 48.3125 213.320312 49.835938 211.796875 51.738281 211.796875 L 55.664062 211.796875 C 57.570312 211.796875 59.09375 213.320312 59.09375 215.226562 L 59.09375 228.65625 L 48.3125 228.65625 Z M 48.3125 231.589844 L 59.09375 231.589844 L 59.09375 257.074219 L 48.3125 257.074219 Z M 25.988281 216.722656 C 26.105469 214.667969 27.804688 213.054688 29.855469 213.054688 C 31.90625 213.054688 33.605469 214.667969 33.722656 216.722656 L 36.035156 257.074219 L 23.703125 257.074219 Z M 60.058594 314.929688 C 60.058594 314.960938 60.058594 314.960938 60.058594 314.988281 L 60 315.28125 C 60 315.28125 60 315.3125 60 315.339844 L 59.972656 315.429688 L 59.972656 315.546875 C 59.941406 315.636719 59.941406 315.753906 59.914062 315.871094 L 59.914062 315.898438 C 59.882812 316.015625 59.855469 316.132812 59.855469 316.25 C 59.765625 316.660156 59.738281 316.835938 59.738281 316.835938 L 23 316.835938 L 14.648438 270.238281 L 47.84375 270.238281 C 48.664062 270.238281 49.308594 269.566406 49.308594 268.773438 C 49.308594 267.953125 48.664062 267.308594 47.84375 267.308594 L 14.121094 267.308594 L 14.121094 267.21875 L 13.828125 265.605469 C 13.300781 262.792969 15.441406 260.003906 18.515625 260.003906 L 64.191406 260.003906 C 67.148438 260.003906 69.257812 262.585938 68.90625 265.371094 C 63.105469 298.011719 60.851562 310.5625 60.089844 314.84375 Z M 143.46875 109.6875 C 143.46875 109.039062 143.996094 108.542969 144.640625 108.542969 L 162.511719 108.542969 C 163.328125 108.542969 163.976562 107.867188 163.976562 107.074219 C 163.976562 102.355469 168.253906 98.542969 173.496094 98.542969 C 178.710938 98.542969 182.988281 102.355469 182.988281 107.074219 C 182.988281 107.867188 183.632812 108.542969 184.453125 108.542969 L 202.324219 108.542969 C 202.96875 108.542969 203.496094 109.039062 203.496094 109.6875 L 203.496094 128.394531 C 203.496094 129.039062 202.96875 129.566406 202.324219 129.566406 L 144.640625 129.566406 C 143.996094 129.566406 143.46875 129.039062 143.46875 128.394531 C 143.46875 127.808594 143.46875 109.6875 143.46875 109.6875 Z M 114.933594 119.214844 C 114.933594 117.132812 116.628906 115.433594 118.710938 115.433594 C 119.179688 115.433594 140.539062 115.433594 140.539062 115.433594 L 140.539062 122.382812 L 114.933594 122.382812 Z M 101.835938 129.097656 C 101.835938 127.015625 103.535156 125.316406 105.613281 125.316406 C 106.90625 125.316406 140.539062 125.316406 140.539062 125.316406 L 140.539062 128.394531 C 140.539062 130.652344 142.382812 132.5 144.640625 132.5 L 202.324219 132.5 C 204.582031 132.5 206.425781 130.652344 206.425781 128.394531 L 206.425781 125.316406 L 241.378906 125.316406 C 243.457031 125.316406 245.128906 127.015625 245.128906 129.097656 L 245.128906 290.589844 C 245.128906 299.449219 238.152344 306.71875 229.484375 307.160156 C 229.277344 307.1875 229.101562 307.1875 228.898438 307.1875 C 219.609375 307.394531 211.992188 299.09375 211.992188 289.859375 L 211.992188 282.703125 C 211.992188 281.882812 211.347656 281.238281 210.527344 281.238281 L 101.835938 281.238281 Z M 102.539062 307.1875 C 93.398438 307.1875 85.957031 299.742188 85.957031 290.589844 L 85.957031 284.167969 L 209.0625 284.167969 L 209.0625 289.859375 C 209.0625 297.101562 213.222656 304.023438 218.644531 307.1875 Z M 256.789062 323.40625 C 256.789062 325.488281 255.058594 327.1875 252.980469 327.1875 L 118.710938 327.1875 C 116.628906 327.1875 114.933594 325.488281 114.933594 323.40625 L 114.933594 310.121094 L 228.925781 310.121094 C 239.445312 309.945312 248.058594 301.296875 248.058594 290.589844 L 248.058594 129.097656 C 248.058594 125.402344 245.070312 122.382812 241.378906 122.382812 L 206.425781 122.382812 L 206.425781 115.433594 L 252.980469 115.433594 C 255.058594 115.433594 256.789062 117.132812 256.789062 119.214844 Z M 269.882812 323.40625 C 269.882812 325.488281 268.183594 327.1875 266.105469 327.1875 L 258.542969 327.1875 C 259.277344 326.105469 259.71875 324.8125 259.71875 323.40625 L 259.71875 119.214844 C 259.71875 117.808594 259.277344 116.519531 258.542969 115.433594 L 266.105469 115.433594 C 268.183594 115.433594 269.882812 117.132812 269.882812 119.214844 Z M 349.101562 238.832031 C 348.398438 238.246094 348.28125 237.335938 348.777344 236.632812 L 350.128906 234.785156 C 350.625 234.140625 351.5625 233.9375 352.351562 234.492188 L 358.683594 239.15625 C 359.445312 239.742188 359.53125 240.738281 359.03125 241.355469 L 357.6875 243.203125 C 357.160156 243.90625 356.164062 244.023438 355.460938 243.496094 C 355.167969 243.261719 349.101562 238.832031 349.101562 238.832031 Z M 324.082031 218.628906 C 328.15625 218.628906 331.464844 221.941406 331.464844 226.046875 C 331.464844 227.835938 330.820312 229.507812 329.648438 230.855469 C 328.15625 229.566406 326.191406 228.773438 324.054688 228.773438 C 321.914062 228.773438 319.953125 229.566406 318.457031 230.855469 C 317.3125 229.507812 316.640625 227.835938 316.640625 226.046875 C 316.640625 221.941406 319.980469 218.628906 324.082031 218.628906 Z M 324.054688 231.707031 C 327.167969 231.707031 329.707031 234.335938 329.707031 237.394531 C 329.707031 237.542969 329.707031 237.71875 329.679688 237.863281 C 327.832031 237.601562 325.957031 237.484375 324.054688 237.484375 C 322.148438 237.484375 320.242188 237.601562 318.429688 237.863281 C 318.398438 237.71875 318.398438 237.542969 318.398438 237.394531 C 318.398438 234.941406 320.632812 231.707031 324.054688 231.707031 Z M 292.707031 243.496094 C 292.003906 244.050781 291.007812 243.90625 290.507812 243.203125 L 289.132812 241.355469 C 288.632812 240.652344 288.75 239.710938 289.480469 239.15625 L 295.8125 234.492188 C 296.515625 233.964844 297.539062 234.113281 298.039062 234.785156 L 299.386719 236.632812 C 299.882812 237.25 299.796875 238.246094 299.035156 238.832031 C 298.742188 239.066406 293.058594 243.230469 292.707031 243.496094 Z M 285.910156 278.597656 C 285.910156 257.511719 303.078125 240.417969 324.054688 240.417969 C 345.027344 240.417969 362.257812 257.453125 362.257812 278.597656 C 362.257812 299.683594 345.117188 316.835938 324.054688 316.835938 C 303.019531 316.835938 285.910156 299.683594 285.910156 278.597656 Z M 285.910156 278.597656"/></g><path fill="#5C6481" d="M 123.808594 227.542969 C 124.488281 228.152344 125.328125 228.105469 125.890625 227.542969 C 126.285156 227.144531 139.011719 214.410156 138.691406 214.726562 C 139.25 214.171875 139.25 213.230469 138.691406 212.675781 C 138.105469 212.089844 137.167969 212.089844 136.613281 212.675781 L 124.863281 224.433594 L 121.875 221.472656 C 121.320312 220.886719 120.382812 220.886719 119.824219 221.472656 C 119.238281 222.03125 119.238281 222.96875 119.824219 223.554688 Z M 123.808594 227.542969"/><path fill="#5C6481" d="M 123.808594 192.148438 C 124.472656 192.746094 125.398438 192.640625 125.890625 192.148438 C 126.285156 191.75 139.011719 179.011719 138.691406 179.332031 C 139.25 178.746094 139.25 177.835938 138.691406 177.25 C 138.105469 176.691406 137.167969 176.691406 136.613281 177.25 L 124.863281 189.007812 L 121.875 186.046875 C 121.320312 185.492188 120.382812 185.492188 119.824219 186.046875 C 119.238281 186.632812 119.238281 187.574219 119.824219 188.128906 Z M 123.808594 192.148438"/><path fill="#5C6481" d="M 123.808594 156.722656 C 124.394531 157.308594 125.308594 157.304688 125.890625 156.722656 C 126.285156 156.324219 139.011719 143.589844 138.691406 143.90625 C 139.25 143.351562 139.25 142.414062 138.691406 141.824219 C 138.105469 141.269531 137.167969 141.269531 136.613281 141.824219 C 136.320312 142.121094 124.085938 154.394531 124.863281 153.613281 L 121.875 150.652344 C 121.320312 150.066406 120.382812 150.066406 119.824219 150.652344 C 119.238281 151.210938 119.238281 152.148438 119.824219 152.707031 Z M 123.808594 156.722656"/><path fill="#5C6481" d="M 49.726562 179.917969 L 55.632812 179.921875 L 55.632812 185.835938 C 55.632812 186.648438 56.289062 187.300781 57.097656 187.300781 C 57.910156 187.300781 58.5625 186.648438 58.5625 185.835938 L 58.5625 179.921875 L 64.472656 179.921875 C 65.285156 179.921875 65.9375 179.265625 65.9375 178.457031 C 65.9375 177.648438 65.285156 176.988281 64.472656 176.988281 L 58.5625 176.988281 L 58.5625 171.074219 C 58.5625 170.265625 57.910156 169.609375 57.097656 169.609375 C 56.289062 169.609375 55.632812 170.265625 55.632812 171.074219 L 55.632812 176.988281 L 49.726562 176.988281 C 48.917969 176.988281 48.261719 177.644531 48.261719 178.453125 C 48.261719 179.261719 48.917969 179.917969 49.726562 179.917969 Z M 49.726562 179.917969"/><path fill="#5C6481" d="M 314.472656 206.839844 C 314.707031 206.839844 314.972656 206.75 315.207031 206.632812 L 329.972656 198.101562 C 330.410156 197.835938 330.703125 197.367188 330.703125 196.839844 C 330.703125 196.3125 330.410156 195.8125 329.972656 195.550781 L 315.207031 187.015625 C 314.738281 186.78125 314.179688 186.78125 313.742188 187.015625 C 313.273438 187.28125 313.007812 187.777344 313.007812 188.304688 L 313.007812 205.375 C 313.007812 205.871094 313.273438 206.371094 313.742188 206.632812 C 313.945312 206.75 314.207031 206.839844 314.472656 206.839844 Z M 315.9375 190.828125 L 326.308594 196.839844 L 315.9375 202.820312 Z M 315.9375 190.828125"/><g clip-path="url(#b)"><path fill="#5C6481" d="M 229.039062 48.148438 L 234.953125 48.148438 L 234.953125 54.0625 C 234.953125 54.871094 235.605469 55.527344 236.417969 55.527344 C 237.226562 55.527344 237.882812 54.871094 237.882812 54.0625 L 237.882812 48.144531 L 243.789062 48.144531 C 244.597656 48.144531 245.253906 47.488281 245.253906 46.679688 C 245.253906 45.867188 244.597656 45.210938 243.789062 45.210938 L 237.882812 45.214844 L 237.882812 39.300781 C 237.882812 38.492188 237.226562 37.835938 236.417969 37.835938 C 235.605469 37.835938 234.953125 38.492188 234.953125 39.300781 L 234.953125 45.214844 L 229.039062 45.214844 C 228.230469 45.214844 227.574219 45.871094 227.574219 46.679688 C 227.574219 47.492188 228.230469 48.148438 229.039062 48.148438 Z M 229.039062 48.148438"/></g><path fill="#5C6481" d="M 120.207031 82.230469 C 124.898438 82.230469 128.71875 78.394531 128.71875 73.679688 C 128.71875 68.984375 124.898438 65.160156 120.207031 65.160156 C 119.398438 65.160156 118.742188 65.816406 118.742188 66.628906 C 118.742188 67.4375 119.398438 68.09375 120.207031 68.09375 C 123.285156 68.09375 125.789062 70.597656 125.789062 73.679688 C 125.789062 76.777344 123.285156 79.296875 120.207031 79.296875 C 117.128906 79.296875 114.621094 76.777344 114.621094 73.679688 C 114.621094 72.871094 113.96875 72.214844 113.15625 72.214844 C 112.347656 72.214844 111.691406 72.871094 111.691406 73.679688 C 111.691406 78.394531 115.511719 82.230469 120.207031 82.230469 Z M 120.207031 82.230469"/><path fill="#5C6481" d="M 324.054688 247.953125 C 307.179688 247.953125 293.4375 261.707031 293.4375 278.597656 C 293.4375 295.519531 307.179688 309.300781 324.054688 309.300781 C 340.988281 309.300781 354.726562 295.519531 354.726562 278.597656 C 354.726562 261.707031 340.988281 247.953125 324.054688 247.953125 Z M 324.054688 306.367188 C 308.789062 306.367188 296.367188 293.90625 296.367188 278.597656 C 296.367188 263.320312 308.789062 250.886719 324.054688 250.886719 C 339.375 250.886719 351.796875 263.320312 351.796875 278.597656 C 351.796875 293.90625 339.375 306.367188 324.054688 306.367188 Z M 324.054688 306.367188"/><path fill="#5C6481" d="M 331.523438 262.851562 C 331.902344 262.996094 332.257812 263.085938 332.636719 263.085938 C 333.605469 263.085938 334.542969 262.527344 334.980469 261.589844 C 335.15625 261.238281 335.214844 260.855469 335.214844 260.476562 C 335.214844 259.507812 334.6875 258.570312 333.75 258.128906 C 333.398438 257.953125 333.019531 257.894531 332.636719 257.894531 C 331.671875 257.894531 330.734375 258.421875 330.292969 259.359375 C 329.679688 260.679688 330.234375 262.234375 331.523438 262.851562 Z M 331.523438 262.851562"/><path fill="#5C6481" d="M 341.074219 274.578125 C 341.339844 275.78125 342.394531 276.601562 343.5625 276.601562 C 343.769531 276.601562 343.945312 276.574219 344.179688 276.515625 C 345.609375 276.15625 346.457031 274.683594 346.085938 273.378906 C 345.761719 271.941406 344.28125 271.097656 342.980469 271.472656 C 341.574219 271.792969 340.722656 273.171875 341.074219 274.578125 Z M 341.074219 274.578125"/><path fill="#5C6481" d="M 308.320312 268.773438 C 309.714844 268.773438 310.929688 267.699219 310.929688 266.191406 C 310.929688 265.429688 310.605469 264.667969 309.960938 264.140625 C 308.769531 263.230469 307.179688 263.476562 306.328125 264.582031 C 305.449219 265.695312 305.625 267.335938 306.738281 268.246094 C 307.207031 268.597656 307.792969 268.773438 308.320312 268.773438 Z M 308.320312 268.773438"/><path fill="#5C6481" d="M 344.210938 280.355469 C 344.003906 280.296875 343.828125 280.296875 343.621094 280.296875 C 342.453125 280.296875 341.398438 281.121094 341.132812 282.320312 C 340.8125 283.730469 341.691406 285.109375 343.097656 285.402344 C 343.300781 285.460938 343.476562 285.460938 343.652344 285.460938 C 344.855469 285.460938 345.910156 284.636719 346.171875 283.4375 C 346.230469 283.230469 346.230469 283.054688 346.230469 282.851562 C 346.230469 281.675781 345.410156 280.621094 344.210938 280.355469 Z M 344.210938 280.355469"/><path fill="#5C6481" d="M 323.9375 261.148438 L 323.964844 261.148438 C 325.402344 261.148438 326.515625 259.976562 326.515625 258.539062 C 326.515625 257.101562 325.339844 255.957031 323.9375 255.957031 C 322.5 255.957031 321.359375 257.160156 321.359375 258.597656 C 321.359375 260.003906 322.53125 261.148438 323.9375 261.148438 Z M 323.9375 261.148438"/><path fill="#5C6481" d="M 324.375 296.074219 C 324.347656 296.074219 324.347656 296.074219 324.316406 296.074219 L 324.082031 296.074219 C 322.648438 296.074219 321.503906 297.25 321.503906 298.683594 C 321.503906 300.121094 322.648438 301.265625 324.082031 301.265625 L 324.347656 301.265625 C 324.347656 301.265625 324.347656 301.265625 324.375 301.265625 C 325.8125 301.238281 326.925781 300.09375 326.925781 298.65625 C 326.894531 297.25 325.722656 296.074219 324.375 296.074219 Z M 324.375 296.074219"/><path fill="#5C6481" d="M 315.441406 294.082031 C 314.472656 294.082031 313.535156 294.636719 313.097656 295.578125 C 312.453125 296.867188 313.007812 298.390625 314.265625 299.035156 C 314.648438 299.183594 315.03125 299.300781 315.410156 299.300781 C 316.800781 299.300781 318.015625 298.140625 318.015625 296.71875 C 318.015625 295.753906 316.765625 294.082031 315.441406 294.082031 Z M 315.441406 294.082031"/><path fill="#5C6481" d="M 306.855469 289.125 C 305.714844 290.003906 305.535156 291.675781 306.417969 292.789062 C 306.941406 293.40625 307.707031 293.730469 308.464844 293.730469 C 308.996094 293.730469 309.582031 293.554688 310.078125 293.203125 C 311.183594 292.253906 311.3125 290.589844 310.460938 289.535156 C 309.597656 288.417969 307.933594 288.25 306.855469 289.125 Z M 306.855469 289.125"/><path fill="#5C6481" d="M 316.40625 262.9375 C 317.675781 262.304688 318.246094 260.832031 317.609375 259.449219 C 317.167969 258.539062 316.261719 258.011719 315.292969 258.011719 C 314.914062 258.011719 314.53125 258.097656 314.152344 258.273438 C 312.832031 258.890625 312.335938 260.445312 312.980469 261.734375 C 313.542969 262.984375 315.113281 263.585938 316.40625 262.9375 Z M 316.40625 262.9375"/><path fill="#5C6481" d="M 307.148438 283.113281 C 307.148438 282.9375 307.121094 282.761719 307.089844 282.585938 C 306.796875 281.382812 305.742188 280.5625 304.570312 280.5625 C 304.367188 280.5625 304.191406 280.5625 303.984375 280.621094 C 302.578125 280.914062 301.699219 282.320312 302.023438 283.730469 C 302.316406 284.933594 303.367188 285.753906 304.570312 285.753906 C 306.023438 285.753906 307.148438 284.523438 307.148438 283.113281 Z M 307.148438 283.113281"/><path fill="#5C6481" d="M 339.640625 268.570312 C 340.226562 268.570312 340.78125 268.390625 341.25 267.980469 C 342.3125 267.160156 342.585938 265.550781 341.632812 264.375 C 340.695312 263.230469 339.101562 263.097656 338 263.992188 C 336.886719 264.875 336.710938 266.515625 337.617188 267.628906 C 338.144531 268.273438 338.878906 268.570312 339.640625 268.570312 Z M 339.640625 268.570312"/><path fill="#5C6481" d="M 337.820312 289.332031 C 336.945312 290.472656 337.121094 292.117188 338.261719 292.996094 C 338.761719 293.378906 339.285156 293.554688 339.875 293.554688 C 340.632812 293.554688 341.398438 293.230469 341.925781 292.554688 C 342.75 291.453125 342.613281 289.773438 341.453125 288.921875 C 340.988281 288.539062 338.808594 288.125 337.820312 289.332031 Z M 337.820312 289.332031"/><path fill="#5C6481" d="M 331.84375 294.257812 C 330.527344 294.902344 330 296.457031 330.675781 297.71875 C 331.113281 298.65625 332.023438 299.183594 332.988281 299.183594 C 333.398438 299.183594 333.75 299.09375 334.160156 298.917969 C 335.039062 298.449219 335.566406 297.542969 335.566406 296.574219 C 335.566406 296.191406 335.480469 295.8125 335.304688 295.429688 C 334.621094 294.109375 333.058594 293.652344 331.84375 294.257812 Z M 331.84375 294.257812"/><path fill="#5C6481" d="M 303.953125 276.78125 C 304.128906 276.808594 304.335938 276.839844 304.511719 276.839844 C 305.714844 276.839844 306.769531 276.015625 307.058594 274.785156 C 307.089844 274.609375 307.121094 274.433594 307.121094 274.257812 C 307.121094 272.796875 305.914062 271.648438 304.511719 271.648438 C 303.339844 271.648438 302.285156 272.4375 301.992188 273.671875 C 301.699219 275.078125 302.578125 276.425781 303.953125 276.78125 Z M 303.953125 276.78125"/><path fill="#5C6481" d="M 334.011719 270.886719 C 334.582031 270.316406 334.582031 269.386719 334.011719 268.8125 C 333.4375 268.242188 332.511719 268.242188 331.941406 268.8125 L 325.5625 275.199219 C 325.109375 275.003906 324.609375 274.890625 324.082031 274.890625 C 322.023438 274.890625 320.355469 276.558594 320.355469 278.621094 C 320.355469 279.148438 320.46875 279.648438 320.667969 280.101562 L 319.347656 281.421875 C 318.777344 281.996094 318.777344 282.921875 319.347656 283.496094 C 319.632812 283.78125 320.007812 283.925781 320.382812 283.925781 C 320.757812 283.925781 321.132812 283.78125 321.421875 283.496094 L 322.816406 282.097656 C 323.214844 282.246094 323.632812 282.355469 324.082031 282.355469 C 326.144531 282.355469 327.8125 280.683594 327.8125 278.621094 C 327.8125 278.167969 327.703125 277.75 327.558594 277.347656 Z M 334.011719 270.886719"/></svg>